# xmcd
#
# Track frame offsets:
#	182
#	17882
#	31120
#	56307
#	78507
#	93807
#	117782
#	137657
#	165107
#
# Disc length: 2761 seconds
#
# Revision: 0
# Processed by: cddbd v1.5.2PL0 Copyright (c) Steve Scherf et al.
# Submitted via: EasyCDDAExtractor 10.0.2.1
#
DISCID=5a0ac709
DTITLE=Stevie Ray Vaughan - The Last Live Show
DYEAR=1990
DGENRE=Blues
TTITLE0=Testify
TTITLE1=The House Is Rockin'
TTITLE2=Tightrope
TTITLE3=The Things That I Used To Do
TTITLE4=Let Me Love You Baby
TTITLE5=Leave My Little Girl Alone
TTITLE6=Pride And Joy
TTITLE7=Wall Of Denial
TTITLE8=Riviera Paradise
EXTD=
EXTT0=
EXTT1=
EXTT2=
EXTT3=
EXTT4=
EXTT5=
EXTT6=
EXTT7=
EXTT8=
PLAYORDER=
